<mxfile host="65bd71144e">
    <diagram id="jg4Rf8FS8Mjt9E2AxwzA" name="Page-1">
        <mxGraphModel dx="1599" dy="1816" grid="1" gridSize="10" guides="1" tooltips="1" connect="1" arrows="1" fold="1" page="1" pageScale="1" pageWidth="827" pageHeight="1169" math="0" shadow="0">
            <root>
                <mxCell id="0"/>
                <mxCell id="1" parent="0"/>
                <mxCell id="2" value="&lt;div style=&quot;font-size: 15px; line-height: 24px; letter-spacing: -0.08px; overflow-wrap: break-word; color: rgb(0, 0, 0); text-align: start;&quot; class=&quot;paragraph&quot;&gt;&lt;br&gt;&lt;/div&gt;" style="text;html=1;align=center;verticalAlign=middle;resizable=0;points=[];autosize=1;strokeColor=none;fillColor=none;fontSize=20;fontFamily=Architects Daughter;sketch=1;hachureGap=4;jiggle=2;curveFitting=1;fontSource=https%3A%2F%2Ffonts.googleapis.com%2Fcss%3Ffamily%3DArchitects%2BDaughter;" vertex="1" parent="1">
                    <mxGeometry x="50" y="-350" width="20" height="40" as="geometry"/>
                </mxCell>
                <mxCell id="4" value="&lt;div class=&quot;paragraph&quot; style=&quot;line-height: 24px; letter-spacing: -0.08px; overflow-wrap: break-word;&quot;&gt;&lt;font style=&quot;font-size: 20px;&quot;&gt;&lt;b&gt;Introduction of GRPC&lt;/b&gt;&lt;/font&gt;&lt;/div&gt;&lt;div class=&quot;check&quot; style=&quot;&quot;&gt;&lt;font size=&quot;3&quot;&gt;&amp;nbsp;probelm statement&lt;/font&gt;&lt;/div&gt;&lt;ol style=&quot;&quot;&gt;&lt;li style=&quot;&quot;&gt;   &lt;b&gt;&lt;font size=&quot;3&quot;&gt;monolith to microservice archetecture &lt;/font&gt;&lt;/b&gt;&lt;/li&gt;&lt;li&gt;&lt;font size=&quot;3&quot;&gt;Most of the inter microserice comunication will happen using rest  â€” explain rest disadvantage &lt;/font&gt;&lt;/li&gt;&lt;li&gt;&lt;font size=&quot;3&quot;&gt;serialization &amp;amp; deserialization problem&lt;/font&gt;&lt;/li&gt;&lt;li&gt;&lt;font size=&quot;3&quot;&gt;API Contract.&amp;nbsp;&lt;/font&gt;&lt;/li&gt;&lt;/ol&gt;&lt;div&gt;&lt;font size=&quot;3&quot;&gt;&lt;br&gt;&lt;/font&gt;&lt;/div&gt;&lt;div&gt;&lt;font size=&quot;3&quot;&gt;&lt;br&gt;&lt;/font&gt;&lt;/div&gt;&lt;ol style=&quot;&quot;&gt;&lt;li&gt;&lt;span style=&quot;background-color: initial;&quot;&gt;Benifit of Grpc&lt;/span&gt;&lt;br&gt;&lt;/li&gt;&lt;li&gt;&lt;span style=&quot;background-color: initial;&quot;&gt;Inter service communication&amp;nbsp;&lt;/span&gt;&lt;/li&gt;&lt;/ol&gt;&lt;div&gt;&lt;br&gt;&lt;/div&gt;&lt;div&gt;&lt;br&gt;&lt;/div&gt;&lt;div&gt;&lt;br&gt;&lt;/div&gt;&lt;div&gt;&lt;br&gt;&lt;/div&gt;&lt;ul style=&quot;&quot;&gt;&lt;li&gt;&lt;font size=&quot;3&quot;&gt;  Http2 by default&lt;/font&gt;&lt;/li&gt;&lt;li&gt;&lt;font size=&quot;3&quot;&gt;Non -blocking and streaming binding&lt;/font&gt;&lt;/li&gt;&lt;li&gt;&lt;font size=&quot;3&quot;&gt;protobuf / common contract , language independent&lt;/font&gt;&lt;/li&gt;&lt;li&gt;&lt;font size=&quot;3&quot;&gt;Great for mobiles apps&lt;/font&gt;&lt;/li&gt;&lt;/ul&gt;&lt;div class=&quot;paragraph&quot; style=&quot;line-height: 24px; letter-spacing: -0.08px; font-weight: 400; overflow-wrap: break-word;&quot;&gt;&lt;br&gt;&lt;/div&gt;&lt;div class=&quot;paragraph&quot; style=&quot;line-height: 24px; letter-spacing: -0.08px; font-weight: 400; overflow-wrap: break-word;&quot;&gt;&lt;font size=&quot;3&quot;&gt;Protobuf&lt;/font&gt;&lt;/div&gt;&lt;div class=&quot;paragraph&quot; style=&quot;line-height: 24px; letter-spacing: -0.08px; font-weight: 400; overflow-wrap: break-word;&quot;&gt;&lt;br&gt;&lt;/div&gt;&lt;div class=&quot;paragraph&quot; style=&quot;line-height: 24px; letter-spacing: -0.08px; font-weight: 400; overflow-wrap: break-word;&quot;&gt;&lt;span style=&quot;font-size: medium; letter-spacing: -0.08px; background-color: initial;&quot;&gt;Rest vs GRPC&lt;/span&gt;&lt;/div&gt;&lt;div class=&quot;paragraph&quot; style=&quot;line-height: 24px; letter-spacing: -0.08px; font-weight: 400; overflow-wrap: break-word;&quot;&gt;&lt;font size=&quot;3&quot;&gt;&lt;br&gt;&lt;/font&gt;&lt;/div&gt;&lt;div class=&quot;paragraph&quot; style=&quot;line-height: 24px; letter-spacing: -0.08px; font-weight: 400; overflow-wrap: break-word;&quot;&gt;&lt;font size=&quot;3&quot;&gt;&lt;br&gt;&lt;/font&gt;&lt;/div&gt;&lt;div class=&quot;paragraph&quot; style=&quot;line-height: 24px; letter-spacing: -0.08px; font-weight: 400; overflow-wrap: break-word;&quot;&gt;&lt;font size=&quot;3&quot;&gt;&lt;br&gt;&lt;/font&gt;&lt;/div&gt;&lt;div class=&quot;paragraph&quot; style=&quot;line-height: 24px; letter-spacing: -0.08px; font-weight: 400; overflow-wrap: break-word;&quot;&gt;&lt;font size=&quot;3&quot;&gt;Demos&lt;/font&gt;&lt;/div&gt;&lt;div class=&quot;paragraph&quot; style=&quot;line-height: 24px; letter-spacing: -0.08px; font-weight: 400; overflow-wrap: break-word;&quot;&gt;&lt;font size=&quot;3&quot;&gt;&lt;br&gt;&lt;/font&gt;&lt;/div&gt;&lt;div class=&quot;paragraph&quot; style=&quot;line-height: 24px; letter-spacing: -0.08px; font-weight: 400; overflow-wrap: break-word;&quot;&gt;&lt;font size=&quot;3&quot;&gt;Basics + required dependencies&lt;/font&gt;&lt;/div&gt;&lt;div class=&quot;paragraph&quot; style=&quot;line-height: 24px; letter-spacing: -0.08px; font-weight: 400; overflow-wrap: break-word;&quot;&gt;&lt;font size=&quot;3&quot;&gt;&lt;br&gt;&lt;/font&gt;&lt;/div&gt;&lt;div class=&quot;paragraph&quot; style=&quot;line-height: 24px; letter-spacing: -0.08px; font-weight: 400; overflow-wrap: break-word;&quot;&gt;&lt;font size=&quot;3&quot;&gt;&lt;br&gt;&lt;/font&gt;&lt;/div&gt;&lt;div class=&quot;paragraph&quot; style=&quot;line-height: 24px; letter-spacing: -0.08px; font-weight: 400; overflow-wrap: break-word;&quot;&gt;&lt;font size=&quot;3&quot;&gt; protobuf speed compare to json demo&lt;/font&gt;&lt;/div&gt;&lt;div class=&quot;paragraph&quot; style=&quot;line-height: 24px; letter-spacing: -0.08px; font-weight: 400; overflow-wrap: break-word;&quot;&gt;&lt;span style=&quot;font-size: medium; letter-spacing: -0.08px; background-color: initial;&quot;&gt;&amp;nbsp;&lt;/span&gt;&lt;/div&gt;&lt;div class=&quot;paragraph&quot; style=&quot;line-height: 24px; letter-spacing: -0.08px; font-weight: 400; overflow-wrap: break-word;&quot;&gt;&lt;span style=&quot;font-size: medium; letter-spacing: -0.08px; background-color: initial;&quot;&gt;&lt;br&gt;&lt;/span&gt;&lt;/div&gt;&lt;div class=&quot;paragraph&quot; style=&quot;line-height: 24px; letter-spacing: -0.08px; font-weight: 400; overflow-wrap: break-word;&quot;&gt;&lt;span style=&quot;font-size: medium; letter-spacing: -0.08px; background-color: initial;&quot;&gt;grpc communication type&lt;/span&gt;&lt;/div&gt;&lt;div class=&quot;paragraph&quot; style=&quot;line-height: 24px; letter-spacing: -0.08px; font-weight: 400; overflow-wrap: break-word;&quot;&gt;&lt;font size=&quot;3&quot;&gt; 1. unary&lt;/font&gt;&lt;/div&gt;&lt;div class=&quot;paragraph&quot; style=&quot;line-height: 24px; letter-spacing: -0.08px; font-weight: 400; overflow-wrap: break-word;&quot;&gt;&lt;font size=&quot;3&quot;&gt;&lt;br&gt;&lt;/font&gt;&lt;/div&gt;&lt;div class=&quot;paragraph&quot; style=&quot;line-height: 24px; letter-spacing: -0.08px; font-weight: 400; overflow-wrap: break-word;&quot;&gt;&lt;font size=&quot;3&quot;&gt;&lt;br&gt;&lt;/font&gt;&lt;/div&gt;&lt;div class=&quot;paragraph&quot; style=&quot;line-height: 24px; letter-spacing: -0.08px; font-weight: 400; overflow-wrap: break-word;&quot;&gt;&lt;font size=&quot;3&quot;&gt;&lt;br&gt;&lt;/font&gt;&lt;/div&gt;&lt;div class=&quot;paragraph&quot; style=&quot;line-height: 24px; letter-spacing: -0.08px; font-weight: 400; overflow-wrap: break-word;&quot;&gt;&lt;font size=&quot;3&quot;&gt;&lt;br&gt;&lt;/font&gt;&lt;/div&gt;&lt;div class=&quot;paragraph&quot; style=&quot;line-height: 24px; letter-spacing: -0.08px; font-weight: 400; overflow-wrap: break-word;&quot;&gt;&lt;font size=&quot;3&quot;&gt;&lt;br&gt;&lt;/font&gt;&lt;/div&gt;&lt;div class=&quot;paragraph&quot; style=&quot;line-height: 24px; letter-spacing: -0.08px; font-weight: 400; overflow-wrap: break-word;&quot;&gt;&lt;font size=&quot;3&quot;&gt;&lt;br&gt;&lt;/font&gt;&lt;/div&gt;&lt;div class=&quot;paragraph&quot; style=&quot;line-height: 24px; letter-spacing: -0.08px; font-weight: 400; overflow-wrap: break-word;&quot;&gt;&lt;font size=&quot;3&quot;&gt;&lt;br&gt;&lt;/font&gt;&lt;/div&gt;&lt;div class=&quot;paragraph&quot; style=&quot;line-height: 24px; letter-spacing: -0.08px; font-weight: 400; overflow-wrap: break-word;&quot;&gt;&lt;font size=&quot;3&quot;&gt;&lt;br&gt;&lt;/font&gt;&lt;/div&gt;&lt;div class=&quot;paragraph&quot; style=&quot;line-height: 24px; letter-spacing: -0.08px; font-weight: 400; overflow-wrap: break-word;&quot;&gt;&lt;font size=&quot;3&quot;&gt;&lt;br&gt;&lt;/font&gt;&lt;/div&gt;&lt;div class=&quot;paragraph&quot; style=&quot;line-height: 24px; letter-spacing: -0.08px; font-weight: 400; overflow-wrap: break-word;&quot;&gt;&lt;font size=&quot;3&quot;&gt;&lt;br&gt;&lt;/font&gt;&lt;/div&gt;&lt;div class=&quot;paragraph&quot; style=&quot;line-height: 24px; letter-spacing: -0.08px; font-weight: 400; overflow-wrap: break-word;&quot;&gt;&lt;font size=&quot;3&quot;&gt;&lt;br&gt;&lt;/font&gt;&lt;/div&gt;&lt;div class=&quot;paragraph&quot; style=&quot;line-height: 24px; letter-spacing: -0.08px; font-weight: 400; overflow-wrap: break-word;&quot;&gt;&lt;font size=&quot;3&quot;&gt;2. client streaming&lt;/font&gt;&lt;/div&gt;&lt;div class=&quot;paragraph&quot; style=&quot;line-height: 24px; letter-spacing: -0.08px; font-weight: 400; overflow-wrap: break-word;&quot;&gt;&lt;font size=&quot;3&quot;&gt;&lt;br&gt;&lt;/font&gt;&lt;/div&gt;&lt;div class=&quot;paragraph&quot; style=&quot;line-height: 24px; letter-spacing: -0.08px; font-weight: 400; overflow-wrap: break-word;&quot;&gt;&lt;font size=&quot;3&quot;&gt;&lt;br&gt;&lt;/font&gt;&lt;/div&gt;&lt;div class=&quot;paragraph&quot; style=&quot;line-height: 24px; letter-spacing: -0.08px; font-weight: 400; overflow-wrap: break-word;&quot;&gt;&lt;font size=&quot;3&quot;&gt;&lt;br&gt;&lt;/font&gt;&lt;/div&gt;&lt;div class=&quot;paragraph&quot; style=&quot;line-height: 24px; letter-spacing: -0.08px; font-weight: 400; overflow-wrap: break-word;&quot;&gt;&lt;font size=&quot;3&quot;&gt;&lt;br&gt;&lt;/font&gt;&lt;/div&gt;&lt;div class=&quot;paragraph&quot; style=&quot;line-height: 24px; letter-spacing: -0.08px; font-weight: 400; overflow-wrap: break-word;&quot;&gt;&lt;font size=&quot;3&quot;&gt;&lt;br&gt;&lt;/font&gt;&lt;/div&gt;&lt;div class=&quot;paragraph&quot; style=&quot;line-height: 24px; letter-spacing: -0.08px; font-weight: 400; overflow-wrap: break-word;&quot;&gt;&lt;font size=&quot;3&quot;&gt;&lt;br&gt;&lt;/font&gt;&lt;/div&gt;&lt;div class=&quot;paragraph&quot; style=&quot;line-height: 24px; letter-spacing: -0.08px; font-weight: 400; overflow-wrap: break-word;&quot;&gt;&lt;font size=&quot;3&quot;&gt;&lt;br&gt;&lt;/font&gt;&lt;/div&gt;&lt;div class=&quot;paragraph&quot; style=&quot;line-height: 24px; letter-spacing: -0.08px; font-weight: 400; overflow-wrap: break-word;&quot;&gt;&lt;font size=&quot;3&quot;&gt;&lt;br&gt;&lt;/font&gt;&lt;/div&gt;&lt;div class=&quot;paragraph&quot; style=&quot;line-height: 24px; letter-spacing: -0.08px; font-weight: 400; overflow-wrap: break-word;&quot;&gt;&lt;span style=&quot;background-color: initial; font-size: medium; letter-spacing: -0.08px;&quot;&gt;3. server stream&lt;/span&gt;&lt;br&gt;&lt;/div&gt;&lt;div class=&quot;paragraph&quot; style=&quot;line-height: 24px; letter-spacing: -0.08px; font-weight: 400; overflow-wrap: break-word;&quot;&gt;&lt;font size=&quot;3&quot;&gt;&lt;br&gt;&lt;/font&gt;&lt;/div&gt;&lt;div class=&quot;paragraph&quot; style=&quot;line-height: 24px; letter-spacing: -0.08px; font-weight: 400; overflow-wrap: break-word;&quot;&gt;&lt;font size=&quot;3&quot;&gt;&lt;br&gt;&lt;/font&gt;&lt;/div&gt;&lt;div class=&quot;paragraph&quot; style=&quot;line-height: 24px; letter-spacing: -0.08px; font-weight: 400; overflow-wrap: break-word;&quot;&gt;&lt;font size=&quot;3&quot;&gt;&lt;br&gt;&lt;/font&gt;&lt;/div&gt;&lt;div class=&quot;paragraph&quot; style=&quot;line-height: 24px; letter-spacing: -0.08px; font-weight: 400; overflow-wrap: break-word;&quot;&gt;&lt;font size=&quot;3&quot;&gt;&lt;br&gt;&lt;/font&gt;&lt;/div&gt;&lt;div class=&quot;paragraph&quot; style=&quot;line-height: 24px; letter-spacing: -0.08px; font-weight: 400; overflow-wrap: break-word;&quot;&gt;&lt;font size=&quot;3&quot;&gt;&lt;br&gt;&lt;/font&gt;&lt;/div&gt;&lt;div class=&quot;paragraph&quot; style=&quot;line-height: 24px; letter-spacing: -0.08px; font-weight: 400; overflow-wrap: break-word;&quot;&gt;&lt;font size=&quot;3&quot;&gt;&lt;br&gt;&lt;/font&gt;&lt;/div&gt;&lt;div class=&quot;paragraph&quot; style=&quot;line-height: 24px; letter-spacing: -0.08px; font-weight: 400; overflow-wrap: break-word;&quot;&gt;&lt;font size=&quot;3&quot;&gt;&lt;br&gt;&lt;/font&gt;&lt;/div&gt;&lt;div class=&quot;paragraph&quot; style=&quot;line-height: 24px; letter-spacing: -0.08px; font-weight: 400; overflow-wrap: break-word;&quot;&gt;&lt;font size=&quot;3&quot;&gt;4. bi-directional streaming  demo snake and ladder game demo&lt;/font&gt;&lt;/div&gt;&lt;br&gt;&#9;" style="text;html=1;align=left;verticalAlign=middle;resizable=0;points=[];autosize=1;strokeColor=none;fillColor=none;fontSize=20;fontFamily=Architects Daughter;sketch=1;hachureGap=4;jiggle=2;curveFitting=1;fontSource=https%3A%2F%2Ffonts.googleapis.com%2Fcss%3Ffamily%3DArchitects%2BDaughter;" vertex="1" parent="1">
                    <mxGeometry x="10" y="-985" width="760" height="1830" as="geometry"/>
                </mxCell>
                <mxCell id="5" value="Java sevice" style="rounded=1;whiteSpace=wrap;html=1;sketch=1;hachureGap=4;jiggle=2;curveFitting=1;fontFamily=Architects Daughter;fontSource=https%3A%2F%2Ffonts.googleapis.com%2Fcss%3Ffamily%3DArchitects%2BDaughter;fontSize=20;" vertex="1" parent="1">
                    <mxGeometry x="50" y="-590" width="120" height="60" as="geometry"/>
                </mxCell>
                <mxCell id="6" value="C# Dot net service&amp;nbsp;" style="whiteSpace=wrap;html=1;fontSize=20;fontFamily=Architects Daughter;rounded=1;sketch=1;hachureGap=4;jiggle=2;curveFitting=1;fontSource=https%3A%2F%2Ffonts.googleapis.com%2Fcss%3Ffamily%3DArchitects%2BDaughter;" vertex="1" parent="1">
                    <mxGeometry x="390" y="-590" width="120" height="60" as="geometry"/>
                </mxCell>
                <mxCell id="8" value="" style="shape=flexArrow;endArrow=classic;startArrow=classic;html=1;sketch=1;hachureGap=4;jiggle=2;curveFitting=1;fontFamily=Architects Daughter;fontSource=https%3A%2F%2Ffonts.googleapis.com%2Fcss%3Ffamily%3DArchitects%2BDaughter;fontSize=20;width=5;startSize=8.9;entryX=0;entryY=0.75;entryDx=0;entryDy=0;exitX=1;exitY=0.75;exitDx=0;exitDy=0;" edge="1" parent="1" source="5" target="6">
                    <mxGeometry width="100" height="100" relative="1" as="geometry">
                        <mxPoint x="170" y="-410" as="sourcePoint"/>
                        <mxPoint x="270" y="-510" as="targetPoint"/>
                        <Array as="points">
                            <mxPoint x="270" y="-550"/>
                        </Array>
                    </mxGeometry>
                </mxCell>
                <mxCell id="9" value="grpc client" style="rounded=1;whiteSpace=wrap;html=1;sketch=1;hachureGap=4;jiggle=2;curveFitting=1;fontFamily=Architects Daughter;fontSource=https%3A%2F%2Ffonts.googleapis.com%2Fcss%3Ffamily%3DArchitects%2BDaughter;fontSize=20;" vertex="1" parent="1">
                    <mxGeometry x="30" y="170" width="120" height="60" as="geometry"/>
                </mxCell>
                <mxCell id="10" value="grpc sever" style="whiteSpace=wrap;html=1;fontSize=20;fontFamily=Architects Daughter;rounded=1;sketch=1;hachureGap=4;jiggle=2;curveFitting=1;fontSource=https%3A%2F%2Ffonts.googleapis.com%2Fcss%3Ffamily%3DArchitects%2BDaughter;" vertex="1" parent="1">
                    <mxGeometry x="370" y="170" width="120" height="60" as="geometry"/>
                </mxCell>
                <mxCell id="13" value="" style="endArrow=classic;html=1;sketch=1;hachureGap=4;jiggle=2;curveFitting=1;fontFamily=Architects Daughter;fontSource=https%3A%2F%2Ffonts.googleapis.com%2Fcss%3Ffamily%3DArchitects%2BDaughter;fontSize=20;entryX=0;entryY=0.25;entryDx=0;entryDy=0;exitX=1;exitY=0.25;exitDx=0;exitDy=0;" edge="1" parent="1" source="9" target="10">
                    <mxGeometry width="50" height="50" relative="1" as="geometry">
                        <mxPoint x="150" y="200" as="sourcePoint"/>
                        <mxPoint x="200" y="150" as="targetPoint"/>
                    </mxGeometry>
                </mxCell>
                <mxCell id="14" value="" style="endArrow=classic;html=1;sketch=1;hachureGap=4;jiggle=2;curveFitting=1;fontFamily=Architects Daughter;fontSource=https%3A%2F%2Ffonts.googleapis.com%2Fcss%3Ffamily%3DArchitects%2BDaughter;fontSize=20;exitX=0;exitY=0.75;exitDx=0;exitDy=0;" edge="1" parent="1" source="10">
                    <mxGeometry width="50" height="50" relative="1" as="geometry">
                        <mxPoint x="100" y="260" as="sourcePoint"/>
                        <mxPoint x="150" y="210" as="targetPoint"/>
                    </mxGeometry>
                </mxCell>
                <mxCell id="15" value="request" style="text;html=1;strokeColor=none;fillColor=none;align=center;verticalAlign=middle;whiteSpace=wrap;rounded=0;sketch=1;hachureGap=4;jiggle=2;curveFitting=1;fontFamily=Architects Daughter;fontSource=https%3A%2F%2Ffonts.googleapis.com%2Fcss%3Ffamily%3DArchitects%2BDaughter;fontSize=20;" vertex="1" parent="1">
                    <mxGeometry x="220" y="150" width="60" height="30" as="geometry"/>
                </mxCell>
                <mxCell id="16" value="response" style="text;html=1;strokeColor=none;fillColor=none;align=center;verticalAlign=middle;whiteSpace=wrap;rounded=0;sketch=1;hachureGap=4;jiggle=2;curveFitting=1;fontFamily=Architects Daughter;fontSource=https%3A%2F%2Ffonts.googleapis.com%2Fcss%3Ffamily%3DArchitects%2BDaughter;fontSize=20;" vertex="1" parent="1">
                    <mxGeometry x="230" y="210" width="60" height="30" as="geometry"/>
                </mxCell>
                <mxCell id="17" value="grpc client" style="rounded=1;whiteSpace=wrap;html=1;sketch=1;hachureGap=4;jiggle=2;curveFitting=1;fontFamily=Architects Daughter;fontSource=https%3A%2F%2Ffonts.googleapis.com%2Fcss%3Ffamily%3DArchitects%2BDaughter;fontSize=20;" vertex="1" parent="1">
                    <mxGeometry x="40" y="480" width="120" height="60" as="geometry"/>
                </mxCell>
                <mxCell id="18" value="grpc sever" style="whiteSpace=wrap;html=1;fontSize=20;fontFamily=Architects Daughter;rounded=1;sketch=1;hachureGap=4;jiggle=2;curveFitting=1;fontSource=https%3A%2F%2Ffonts.googleapis.com%2Fcss%3Ffamily%3DArchitects%2BDaughter;" vertex="1" parent="1">
                    <mxGeometry x="380" y="480" width="120" height="60" as="geometry"/>
                </mxCell>
                <mxCell id="19" value="stream request" style="text;html=1;strokeColor=none;fillColor=none;align=center;verticalAlign=middle;whiteSpace=wrap;rounded=0;sketch=1;hachureGap=4;jiggle=2;curveFitting=1;fontFamily=Architects Daughter;fontSource=https%3A%2F%2Ffonts.googleapis.com%2Fcss%3Ffamily%3DArchitects%2BDaughter;fontSize=20;" vertex="1" parent="1">
                    <mxGeometry x="200" y="460" width="170" height="30" as="geometry"/>
                </mxCell>
                <mxCell id="20" value="response" style="text;html=1;strokeColor=none;fillColor=none;align=center;verticalAlign=middle;whiteSpace=wrap;rounded=0;sketch=1;hachureGap=4;jiggle=2;curveFitting=1;fontFamily=Architects Daughter;fontSource=https%3A%2F%2Ffonts.googleapis.com%2Fcss%3Ffamily%3DArchitects%2BDaughter;fontSize=20;" vertex="1" parent="1">
                    <mxGeometry x="240" y="520" width="60" height="30" as="geometry"/>
                </mxCell>
                <mxCell id="21" value="" style="endArrow=classic;html=1;sketch=1;hachureGap=4;jiggle=2;curveFitting=1;fontFamily=Architects Daughter;fontSource=https%3A%2F%2Ffonts.googleapis.com%2Fcss%3Ffamily%3DArchitects%2BDaughter;fontSize=20;exitX=0;exitY=0.75;exitDx=0;exitDy=0;entryX=1.04;entryY=0.639;entryDx=0;entryDy=0;entryPerimeter=0;" edge="1" parent="1" source="18" target="17">
                    <mxGeometry width="50" height="50" relative="1" as="geometry">
                        <mxPoint x="160" y="500" as="sourcePoint"/>
                        <mxPoint x="210" y="450" as="targetPoint"/>
                    </mxGeometry>
                </mxCell>
                <mxCell id="22" value="" style="endArrow=none;dashed=1;html=1;dashPattern=1 3;strokeWidth=2;sketch=1;hachureGap=4;jiggle=2;curveFitting=1;fontFamily=Architects Daughter;fontSource=https%3A%2F%2Ffonts.googleapis.com%2Fcss%3Ffamily%3DArchitects%2BDaughter;fontSize=20;entryX=0;entryY=0.25;entryDx=0;entryDy=0;exitX=1;exitY=0.25;exitDx=0;exitDy=0;" edge="1" parent="1" source="17" target="18">
                    <mxGeometry width="50" height="50" relative="1" as="geometry">
                        <mxPoint x="160" y="500" as="sourcePoint"/>
                        <mxPoint x="210" y="450" as="targetPoint"/>
                    </mxGeometry>
                </mxCell>
                <mxCell id="23" value="grpc client" style="rounded=1;whiteSpace=wrap;html=1;sketch=1;hachureGap=4;jiggle=2;curveFitting=1;fontFamily=Architects Daughter;fontSource=https%3A%2F%2Ffonts.googleapis.com%2Fcss%3Ffamily%3DArchitects%2BDaughter;fontSize=20;" vertex="1" parent="1">
                    <mxGeometry x="55" y="650" width="120" height="60" as="geometry"/>
                </mxCell>
                <mxCell id="24" value="grpc sever" style="whiteSpace=wrap;html=1;fontSize=20;fontFamily=Architects Daughter;rounded=1;sketch=1;hachureGap=4;jiggle=2;curveFitting=1;fontSource=https%3A%2F%2Ffonts.googleapis.com%2Fcss%3Ffamily%3DArchitects%2BDaughter;" vertex="1" parent="1">
                    <mxGeometry x="395" y="650" width="120" height="60" as="geometry"/>
                </mxCell>
                <mxCell id="25" value="one request" style="text;html=1;strokeColor=none;fillColor=none;align=center;verticalAlign=middle;whiteSpace=wrap;rounded=0;sketch=1;hachureGap=4;jiggle=2;curveFitting=1;fontFamily=Architects Daughter;fontSource=https%3A%2F%2Ffonts.googleapis.com%2Fcss%3Ffamily%3DArchitects%2BDaughter;fontSize=20;" vertex="1" parent="1">
                    <mxGeometry x="215" y="630" width="170" height="30" as="geometry"/>
                </mxCell>
                <mxCell id="26" value="stream. response" style="text;html=1;strokeColor=none;fillColor=none;align=center;verticalAlign=middle;whiteSpace=wrap;rounded=0;sketch=1;hachureGap=4;jiggle=2;curveFitting=1;fontFamily=Architects Daughter;fontSource=https%3A%2F%2Ffonts.googleapis.com%2Fcss%3Ffamily%3DArchitects%2BDaughter;fontSize=20;" vertex="1" parent="1">
                    <mxGeometry x="190" y="690" width="180" height="30" as="geometry"/>
                </mxCell>
                <mxCell id="27" value="" style="endArrow=classic;html=1;sketch=1;hachureGap=4;jiggle=2;curveFitting=1;fontFamily=Architects Daughter;fontSource=https%3A%2F%2Ffonts.googleapis.com%2Fcss%3Ffamily%3DArchitects%2BDaughter;fontSize=20;exitX=1;exitY=0.25;exitDx=0;exitDy=0;entryX=0;entryY=0.25;entryDx=0;entryDy=0;" edge="1" parent="1" source="23" target="24">
                    <mxGeometry width="50" height="50" relative="1" as="geometry">
                        <mxPoint x="175" y="670" as="sourcePoint"/>
                        <mxPoint x="390" y="670" as="targetPoint"/>
                    </mxGeometry>
                </mxCell>
                <mxCell id="28" value="" style="endArrow=none;dashed=1;html=1;dashPattern=1 3;strokeWidth=2;sketch=1;hachureGap=4;jiggle=2;curveFitting=1;fontFamily=Architects Daughter;fontSource=https%3A%2F%2Ffonts.googleapis.com%2Fcss%3Ffamily%3DArchitects%2BDaughter;fontSize=20;entryX=0;entryY=0.75;entryDx=0;entryDy=0;exitX=1;exitY=0.75;exitDx=0;exitDy=0;" edge="1" parent="1" source="23" target="24">
                    <mxGeometry width="50" height="50" relative="1" as="geometry">
                        <mxPoint x="175" y="670" as="sourcePoint"/>
                        <mxPoint x="225" y="620" as="targetPoint"/>
                        <Array as="points">
                            <mxPoint x="230" y="695"/>
                        </Array>
                    </mxGeometry>
                </mxCell>
                <mxCell id="35" value="grpc client" style="rounded=1;whiteSpace=wrap;html=1;sketch=1;hachureGap=4;jiggle=2;curveFitting=1;fontFamily=Architects Daughter;fontSource=https%3A%2F%2Ffonts.googleapis.com%2Fcss%3Ffamily%3DArchitects%2BDaughter;fontSize=20;" vertex="1" parent="1">
                    <mxGeometry x="40" y="890" width="120" height="60" as="geometry"/>
                </mxCell>
                <mxCell id="36" value="grpc sever" style="whiteSpace=wrap;html=1;fontSize=20;fontFamily=Architects Daughter;rounded=1;sketch=1;hachureGap=4;jiggle=2;curveFitting=1;fontSource=https%3A%2F%2Ffonts.googleapis.com%2Fcss%3Ffamily%3DArchitects%2BDaughter;" vertex="1" parent="1">
                    <mxGeometry x="380" y="890" width="120" height="60" as="geometry"/>
                </mxCell>
                <mxCell id="37" value="stream request" style="text;html=1;strokeColor=none;fillColor=none;align=center;verticalAlign=middle;whiteSpace=wrap;rounded=0;sketch=1;hachureGap=4;jiggle=2;curveFitting=1;fontFamily=Architects Daughter;fontSource=https%3A%2F%2Ffonts.googleapis.com%2Fcss%3Ffamily%3DArchitects%2BDaughter;fontSize=20;" vertex="1" parent="1">
                    <mxGeometry x="200" y="870" width="170" height="30" as="geometry"/>
                </mxCell>
                <mxCell id="39" value="" style="endArrow=none;dashed=1;html=1;dashPattern=1 3;strokeWidth=2;sketch=1;hachureGap=4;jiggle=2;curveFitting=1;fontFamily=Architects Daughter;fontSource=https%3A%2F%2Ffonts.googleapis.com%2Fcss%3Ffamily%3DArchitects%2BDaughter;fontSize=20;entryX=0;entryY=0.25;entryDx=0;entryDy=0;exitX=1;exitY=0.25;exitDx=0;exitDy=0;" edge="1" parent="1" source="35" target="36">
                    <mxGeometry width="50" height="50" relative="1" as="geometry">
                        <mxPoint x="160" y="910" as="sourcePoint"/>
                        <mxPoint x="210" y="860" as="targetPoint"/>
                    </mxGeometry>
                </mxCell>
                <mxCell id="40" value="" style="endArrow=none;dashed=1;html=1;dashPattern=1 3;strokeWidth=2;sketch=1;hachureGap=4;jiggle=2;curveFitting=1;fontFamily=Architects Daughter;fontSource=https%3A%2F%2Ffonts.googleapis.com%2Fcss%3Ffamily%3DArchitects%2BDaughter;fontSize=20;entryX=0;entryY=0.75;entryDx=0;entryDy=0;exitX=1;exitY=0.75;exitDx=0;exitDy=0;" edge="1" parent="1" source="35" target="36">
                    <mxGeometry width="50" height="50" relative="1" as="geometry">
                        <mxPoint x="170" y="915" as="sourcePoint"/>
                        <mxPoint x="390" y="915" as="targetPoint"/>
                    </mxGeometry>
                </mxCell>
                <mxCell id="41" value="stream response" style="text;html=1;strokeColor=none;fillColor=none;align=center;verticalAlign=middle;whiteSpace=wrap;rounded=0;sketch=1;hachureGap=4;jiggle=2;curveFitting=1;fontFamily=Architects Daughter;fontSource=https%3A%2F%2Ffonts.googleapis.com%2Fcss%3Ffamily%3DArchitects%2BDaughter;fontSize=20;" vertex="1" parent="1">
                    <mxGeometry x="185" y="940" width="170" height="30" as="geometry"/>
                </mxCell>
                <UserObject label="https://www.vinsguru.com/grpc-vs-rest-performance-comparison/" link="https://medium.com/sahibinden-technology/benchmarking-rest-vs-grpc-5d4b34360911" id="42">
                    <mxCell style="text;html=1;align=center;verticalAlign=middle;resizable=0;points=[];autosize=1;strokeColor=none;fillColor=none;fontSize=20;fontFamily=Architects Daughter;sketch=1;hachureGap=4;jiggle=2;curveFitting=1;fontSource=https%3A%2F%2Ffonts.googleapis.com%2Fcss%3Ffamily%3DArchitects%2BDaughter;" vertex="1" parent="1">
                        <mxGeometry x="75" y="1010" width="640" height="40" as="geometry"/>
                    </mxCell>
                </UserObject>
                <mxCell id="43" value="performace grpc vs rest" style="text;html=1;align=center;verticalAlign=middle;resizable=0;points=[];autosize=1;strokeColor=none;fillColor=none;fontSize=20;fontFamily=Architects Daughter;sketch=1;hachureGap=4;jiggle=2;curveFitting=1;fontSource=https%3A%2F%2Ffonts.googleapis.com%2Fcss%3Ffamily%3DArchitects%2BDaughter;" vertex="1" parent="1">
                    <mxGeometry y="970" width="270" height="40" as="geometry"/>
                </mxCell>
            </root>
        </mxGraphModel>
    </diagram>
</mxfile>